<?xml version="1.0" standalone="no"?>
<!DOCTYPE svg PUBLIC "-//W3C//DTD SVG 20010904//EN"
 "http://www.w3.org/TR/2001/REC-SVG-20010904/DTD/svg10.dtd">
<svg version="1.0" xmlns="http://www.w3.org/2000/svg"
 width="260.000000pt" height="260.000000pt" viewBox="0 0 260.000000 260.000000"
 preserveAspectRatio="xMidYMid meet">
<metadata>
Created by potrace 1.11, written by Peter Selinger 2001-2013
</metadata>
<g transform="translate(0.000000,260.000000) scale(0.100000,-0.100000)"
fill="#000000" stroke="none">
<path d="M0 1300 l0 -1300 1300 0 1300 0 0 1300 0 1300 -1300 0 -1300 0 0
-1300z m1088 541 c-1 -5 -45 -97 -97 -205 l-94 -196 -154 0 c-127 0 -154 2
-151 14 2 8 43 100 93 205 l90 191 158 0 c88 0 157 -4 155 -9z m648 -8 c-4 -9
-116 -252 -249 -540 l-242 -523 -153 0 c-94 0 -152 4 -150 10 2 5 113 248 248
539 l245 531 154 0 c139 0 153 -2 147 -17z m664 14 c0 -1 -112 -243 -248 -537
l-248 -535 -152 -3 c-84 -1 -152 1 -152 5 0 4 111 247 247 540 l246 533 154 0
c84 0 153 -1 153 -3z m-591 -243 l18 -209 -135 -293 c-74 -160 -137 -290 -140
-288 -2 3 -12 98 -21 212 l-17 208 136 292 c74 161 136 291 138 289 2 -2 11
-97 21 -211z m681 -266 c21 -260 41 -494 44 -520 l5 -48 -164 0 c-91 0 -165 1
-165 3 0 1 -9 105 -20 230 l-19 228 136 295 c75 162 138 292 140 290 3 -2 22
-217 43 -478z m-1350 455 c0 -10 7 -103 16 -206 l16 -188 -132 -287 c-73 -158
-136 -291 -140 -295 -5 -5 -11 35 -15 90 -4 54 -8 107 -8 118 -2 17 4 20 35
21 21 0 40 3 44 6 3 4 46 91 95 195 l89 188 -91 3 c-81 2 -90 5 -85 20 19 52
162 351 169 352 4 0 7 -8 7 -17z m-142 -540 c-33 -71 -64 -134 -70 -140 -8
-10 -105 -13 -424 -13 -228 0 -414 2 -414 4 0 2 29 65 65 140 l64 136 420 0
420 0 -61 -127z m-698 -293 c-22 -44 -52 -106 -66 -137 l-25 -57 -22 39 c-13
22 -47 84 -76 138 l-52 97 140 0 141 0 -40 -80z m346 -52 l-63 -133 -156 -3
c-87 -1 -157 0 -157 4 0 3 28 64 62 135 l61 129 158 0 158 0 -63 -132z"/>
</g>
</svg>
